<svg xmlns="http://www.w3.org/2000/svg" width="27.08" height="33.136" viewBox="0 0 27.08 33.136"><defs><style>.a{fill:#04302c;}</style></defs><g transform="translate(-413.959 -494)"><g transform="translate(386.083 494)"><path class="a" d="M29.273,76.644c-2.8,4.861-1.02,12.239,2.077,16.712C32.9,95.592,34.462,97.6,36.606,97.6l.122,0a6.491,6.491,0,0,0,2.439-.65,6.68,6.68,0,0,1,2.89-.685,6.282,6.282,0,0,1,2.751.663,5.828,5.828,0,0,0,2.635.632c2.415-.045,3.9-2.211,5.207-4.122a18.272,18.272,0,0,0,2.281-4.673l.009-.029A.272.272,0,0,0,54.8,88.4l-.02-.008a6.923,6.923,0,0,1-4.2-6.34,7.127,7.127,0,0,1,3.368-5.958l.027-.017a.272.272,0,0,0,.077-.381,7.838,7.838,0,0,0-6.164-3.348c-.175-.017-.356-.026-.538-.026a10.746,10.746,0,0,0-3.869.966,6.219,6.219,0,0,1-1.853.554,6.063,6.063,0,0,1-1.917-.56,9.289,9.289,0,0,0-3.379-.858h-.086A8.285,8.285,0,0,0,29.273,76.644Z" transform="translate(0 -64.463)"/><path class="a" d="M156.043,0a7.566,7.566,0,0,0-4.995,2.562,7.089,7.089,0,0,0-1.794,5.256.272.272,0,0,0,.248.235c.116.009.234.014.351.014a6.4,6.4,0,0,0,4.715-2.418A7.473,7.473,0,0,0,156.324.242.273.273,0,0,0,156.043,0Z" transform="translate(-108.153)"/></g></g></svg>