<svg xmlns="http://www.w3.org/2000/svg" width="250" height="250" viewBox="0 0 250 250"><defs><style>.a,.b{opacity:0.4;}.b{fill:#58e3bb;}.c{fill:#6fffff;}</style></defs><g transform="translate(0 0)"><g class="a"><circle class="b" cx="125" cy="125" r="125"/><g class="a" transform="translate(71.482 65.206)"><path class="c" d="M166.855,103.176,106.24,132.207c-4.188,2-8.7.276-10.078-3.867s.881-9.122,5.069-11.13l60.615-29.024c4.188-2.008,8.7-.276,10.078,3.867S171.058,101.175,166.855,103.176Z" transform="translate(-95.757 -87.35)"/><path class="c" d="M196.117,201.683a8.062,8.062,0,0,1-4.083.814l-63.041-4.591a6.845,6.845,0,0,1-6.353-6.315,9.7,9.7,0,0,1,4.688-9.085c19.491-11.645,30.106-23.059,30.7-33,.747-12.981-15.527-23.933-21.29-26.754-3.777-1.829-4.987-6.718-2.7-10.951s7.174-6.159,10.951-4.307c1.247.6,30.5,15.169,28.971,40.855-.7,11.8-7.607,23.35-20.551,34.488l41.8,3.046c4.322.314,7.114,4.285,6.233,8.876a9.809,9.809,0,0,1-5.33,6.927Z" transform="translate(-102.565 -92.277)"/><path class="c" d="M180.274,143.346l-60.608,29.024c-4.188,2.008-8.7.276-10.085-3.867s.888-9.115,5.076-11.123l60.615-29.024c4.188-2.008,8.7-.276,10.078,3.867S184.44,141.315,180.274,143.346Z" transform="translate(-99.159 -97.533)"/></g></g></g></svg>