<svg id="Layer_2" data-name="Layer 2" xmlns="http://www.w3.org/2000/svg" width="254" height="40" viewBox="0 0 254 40"><defs><style>.cls-1{fill:#fa0;}.cls-2{isolation:isolate;}.cls-3{fill:#07877b;}</style></defs><title>Fund Genie Logo_V1</title><circle class="cls-1" cx="65.34" cy="18.18" r="0.89"/><circle class="cls-1" cx="82.16" cy="13.24" r="1.88"/><circle class="cls-1" cx="75.95" cy="16.3" r="1.43"/><circle class="cls-1" cx="83.2" cy="7.46" r="1.43"/><circle class="cls-1" cx="70.35" cy="16.64" r="1.43"/><circle class="cls-1" cx="74.77" cy="11.17" r="1.43"/><circle class="cls-1" cx="80.66" cy="1.85" r="1.43"/><circle class="cls-1" cx="78.45" cy="7.09" r="1.43"/><circle class="cls-1" cx="87.66" cy="9.06" r="1.43"/><circle class="cls-1" cx="87.13" cy="2.13" r="2.08"/><path class="cls-1" d="M59.63,18.58l6.24,3.77a29.47,29.47,0,0,0-12.73.74c-6.23,2-15.92,10.89-23.53,11.33s-11.55-6.68-11.55-6.68a77.7,77.7,0,0,0-10-5.36c-2.41-.94-5.24-2.78-6.56-5.47C-.26,13.31.3,8.63,5.09,5.63c3-1.87,9.22-2.46,13.85,3,0,0,1.36,4-.55,6.07,0,0-3.15-7.33-11-7.66,0,0-4.49-.16-4.6,4.93S8.1,21.29,16.42,21.4c0,0,5.09-.39,6.57-4.55h9.08s2.08,6.73,13.08,3.4C45.15,20.25,53.36,17.07,59.63,18.58Z"/><path class="cls-1" d="M31.52,15.48s-.93-6.24-3.17-7.39H26.6s-2.19,1-3.07,7.39Z"/><rect class="cls-1" x="26.71" y="7.6" width="1.59" height="0.49"/><rect class="cls-1" x="27.15" y="4.97" width="0.71" height="3.01" rx="0.36" transform="translate(55 12.96) rotate(180)"/><path class="cls-1" d="M42.25,39c-7.38-.39-9.52-2.31-10.1-3.6a13.06,13.06,0,0,1-2.54.42A11.08,11.08,0,0,1,24.67,35c-.93,3.46-5.9,4-5.9,4v1H45.32C44.44,39,42.25,39,42.25,39Z"/><g id="Funds_Genie" data-name="Funds Genie" class="cls-2"><g class="cls-2"><path class="cls-3" d="M104.63,12.9V18h8.09v2.64h-8.09v6.41h-3.12V10.29h12.24V12.9Z"/><path class="cls-3" d="M128.49,14.27V27.05h-2.84V25.42a4.71,4.71,0,0,1-1.8,1.33,5.8,5.8,0,0,1-2.32.47,5.58,5.58,0,0,1-4-1.43A5.59,5.59,0,0,1,116,21.57v-7.3h3v6.89a3.72,3.72,0,0,0,.78,2.58,2.89,2.89,0,0,0,2.22.85,3.37,3.37,0,0,0,2.55-1,4,4,0,0,0,.94-2.86V14.27Z"/><path class="cls-3" d="M143.55,15.54A5.53,5.53,0,0,1,145,19.73v7.32h-3V20.11a3.59,3.59,0,0,0-.79-2.53,3,3,0,0,0-2.25-.85,3.44,3.44,0,0,0-2.61,1,3.94,3.94,0,0,0-1,2.86v6.46h-3V14.27h2.85v1.65a4.63,4.63,0,0,1,1.87-1.34,6.75,6.75,0,0,1,2.53-.46A5.3,5.3,0,0,1,143.55,15.54Z"/><path class="cls-3" d="M161.46,9.29V27.05h-2.87V25.4a4.63,4.63,0,0,1-1.83,1.36,6.09,6.09,0,0,1-2.41.46A6.67,6.67,0,0,1,151,26.4a5.83,5.83,0,0,1-2.31-2.31,6.86,6.86,0,0,1-.83-3.43,6.82,6.82,0,0,1,.83-3.42,5.87,5.87,0,0,1,2.31-2.3,6.67,6.67,0,0,1,3.32-.82,6.18,6.18,0,0,1,2.32.43,4.73,4.73,0,0,1,1.8,1.3V9.29Zm-4.81,14.88a3.59,3.59,0,0,0,1.36-1.4,4.25,4.25,0,0,0,.5-2.11,4.25,4.25,0,0,0-.5-2.11,3.59,3.59,0,0,0-1.36-1.4,4.09,4.09,0,0,0-3.88,0,3.62,3.62,0,0,0-1.37,1.4,4.7,4.7,0,0,0,0,4.22,3.62,3.62,0,0,0,1.37,1.4,4.09,4.09,0,0,0,3.88,0Z"/><path class="cls-3" d="M166.3,26.81a7.45,7.45,0,0,1-2.38-1l1.15-2.27a7.58,7.58,0,0,0,2.07.92,8.7,8.7,0,0,0,2.39.35c1.78,0,2.68-.47,2.68-1.42a1,1,0,0,0-.68-.93,12.57,12.57,0,0,0-2.19-.5,17.35,17.35,0,0,1-2.58-.55A3.93,3.93,0,0,1,165,20.29a3,3,0,0,1-.73-2.17,3.4,3.4,0,0,1,1.52-2.91,6.94,6.94,0,0,1,4.1-1.09,11.88,11.88,0,0,1,2.64.3,7.32,7.32,0,0,1,2.15.81l-1.15,2.27a7,7,0,0,0-3.66-1,4,4,0,0,0-2,.4,1.18,1.18,0,0,0-.68,1,1,1,0,0,0,.73,1,12.84,12.84,0,0,0,2.26.56,17,17,0,0,1,2.51.55,4,4,0,0,1,1.69,1.05,3,3,0,0,1,.71,2.11,3.33,3.33,0,0,1-1.56,2.87,7.3,7.3,0,0,1-4.23,1.08A11.43,11.43,0,0,1,166.3,26.81Z"/><path class="cls-3" d="M196.05,18.48H199v6.68a9.44,9.44,0,0,1-3,1.58,11.48,11.48,0,0,1-3.54.55,9.56,9.56,0,0,1-4.62-1.11,8.26,8.26,0,0,1-3.23-3.08,8.39,8.39,0,0,1-1.18-4.43,8.41,8.41,0,0,1,1.18-4.43,8.19,8.19,0,0,1,3.24-3.07,9.7,9.7,0,0,1,4.66-1.12,10.24,10.24,0,0,1,3.83.7,7.54,7.54,0,0,1,2.89,2l-2,1.92a6.3,6.3,0,0,0-4.62-1.92,6.6,6.6,0,0,0-3.15.74,5.34,5.34,0,0,0-2.15,2.09,6,6,0,0,0-.78,3.06,5.88,5.88,0,0,0,.78,3,5.59,5.59,0,0,0,2.15,2.11,6.32,6.32,0,0,0,3.12.76,6.79,6.79,0,0,0,3.45-.86Z"/><path class="cls-3" d="M214.77,21.62h-10a3.49,3.49,0,0,0,1.38,2.23,4.44,4.44,0,0,0,2.76.83,4.62,4.62,0,0,0,3.47-1.39L214,25.14a5.47,5.47,0,0,1-2.18,1.55,8,8,0,0,1-3,.53,7.9,7.9,0,0,1-3.71-.84,6.13,6.13,0,0,1-2.48-2.33,6.63,6.63,0,0,1-.87-3.39,6.61,6.61,0,0,1,.85-3.36A6,6,0,0,1,205,15a6.86,6.86,0,0,1,3.4-.84,6.75,6.75,0,0,1,3.34.83,5.9,5.9,0,0,1,2.3,2.32,7.05,7.05,0,0,1,.82,3.46C214.82,20.94,214.8,21.23,214.77,21.62Zm-8.84-4.25a3.51,3.51,0,0,0-1.21,2.26H212a3.53,3.53,0,0,0-1.17-2.25,3.89,3.89,0,0,0-4.87,0Z"/><path class="cls-3" d="M228.83,15.54a5.57,5.57,0,0,1,1.46,4.19v7.32h-3V20.11a3.59,3.59,0,0,0-.79-2.53,2.92,2.92,0,0,0-2.25-.85,3.44,3.44,0,0,0-2.61,1,4,4,0,0,0-.95,2.86v6.46h-3V14.27h2.85v1.65a4.7,4.7,0,0,1,1.87-1.34,6.8,6.8,0,0,1,2.54-.46A5.33,5.33,0,0,1,228.83,15.54Z"/><path class="cls-3" d="M234.24,11.65a1.75,1.75,0,0,1,0-2.57,1.91,1.91,0,0,1,1.36-.51,1.94,1.94,0,0,1,1.36.49,1.59,1.59,0,0,1,.56,1.23,1.8,1.8,0,0,1-.54,1.33,1.87,1.87,0,0,1-1.38.54A1.91,1.91,0,0,1,234.24,11.65Zm-.15,2.62h3V27.05h-3Z"/><path class="cls-3" d="M253,21.62H243a3.45,3.45,0,0,0,1.38,2.23,4.44,4.44,0,0,0,2.76.83,4.63,4.63,0,0,0,3.47-1.39l1.61,1.85A5.47,5.47,0,0,1,250,26.69a8,8,0,0,1-3,.53,7.87,7.87,0,0,1-3.71-.84,6.07,6.07,0,0,1-2.48-2.33,6.63,6.63,0,0,1-.87-3.39,6.61,6.61,0,0,1,.85-3.36A6,6,0,0,1,243.16,15a6.88,6.88,0,0,1,3.4-.84,6.7,6.7,0,0,1,3.34.83,5.83,5.83,0,0,1,2.3,2.32,7.06,7.06,0,0,1,.83,3.46C253,20.94,253,21.23,253,21.62Zm-8.85-4.25a3.6,3.6,0,0,0-1.21,2.26h7.26A3.53,3.53,0,0,0,249,17.38a3.91,3.91,0,0,0-4.88,0Z"/></g></g></svg>