<svg xmlns="http://www.w3.org/2000/svg" width="29.576" height="33.214" viewBox="0 0 29.576 33.214"><defs><style>.a{fill:#04302c;}</style></defs><g transform="translate(-0.5 0)"><path class="a" d="M1.112,18.855A3.038,3.038,0,0,0,.5,20.7V47.779a3.044,3.044,0,0,0,.532,1.731L15.767,34.141Zm0,0" transform="translate(0 -17.633)"/><path class="a" d="M49.5,15.1l4.78-4.986-16.8-9.7a3.027,3.027,0,0,0-2.347-.3Zm0,0" transform="translate(-32.382 0)"/><path class="a" d="M47.406,276.18,32.891,291.32a3.016,3.016,0,0,0,.961.158,3.056,3.056,0,0,0,1.531-.415l16.924-9.771Zm0,0" transform="translate(-30.29 -258.264)"/><path class="a" d="M287.518,174.231l-4.913-2.836-5.168,5.39,5.289,5.517,4.792-2.767a3.062,3.062,0,0,0,0-5.3Zm0,0" transform="translate(-258.972 -160.276)"/></g></svg>